<svg xmlns="http://www.w3.org/2000/svg" width="79" height="79" viewBox="0 0 79 79">
  <path id="instagram" d="M39.5,62.094A9.406,9.406,0,1,0,48.909,71.5,9.406,9.406,0,0,0,39.5,62.094Zm21.991-7.23A9.522,9.522,0,0,0,56.129,49.5c-3.7-1.462-12.52-1.134-16.629-1.134s-12.917-.34-16.631,1.134a9.522,9.522,0,0,0-5.362,5.362c-1.46,3.7-1.134,12.529-1.134,16.634s-.326,12.92,1.141,16.636A9.522,9.522,0,0,0,22.876,93.5c3.7,1.462,12.52,1.134,16.631,1.134s12.915.34,16.629-1.134A9.522,9.522,0,0,0,61.5,88.134c1.472-3.7,1.134-12.529,1.134-16.634s.339-12.919-1.134-16.634ZM39.5,85.96a14.442,14.442,0,1,1,10.23-4.23A14.46,14.46,0,0,1,39.5,85.96ZM54.556,59.809a1.4,1.4,0,1,1,.007.007ZM70.536,32H8.464A8.464,8.464,0,0,0,0,40.464v62.071A8.464,8.464,0,0,0,8.464,111H70.536A8.464,8.464,0,0,0,79,102.536V40.464A8.464,8.464,0,0,0,70.536,32ZM67.517,83.138c-.227,4.52-1.259,8.524-4.558,11.815s-7.3,4.343-11.815,4.558c-4.657.263-18.62.263-23.277,0-4.52-.227-8.51-1.261-11.815-4.558s-4.343-7.3-4.558-11.815c-.263-4.659-.263-18.623,0-23.277.227-4.52,1.247-8.524,4.558-11.815s7.313-4.331,11.815-4.546c4.657-.263,18.62-.263,23.277,0,4.52.227,8.522,1.261,11.815,4.558s4.343,7.3,4.558,11.824C67.78,64.524,67.78,78.476,67.517,83.138Z" transform="translate(0 -32)" fill="#ff68c8"/>
</svg>
